<?xml version="1.0" standalone="no"?>
<!DOCTYPE svg PUBLIC "-//W3C//DTD SVG 20010904//EN"
 "http://www.w3.org/TR/2001/REC-SVG-20010904/DTD/svg10.dtd">
<svg version="1.0" xmlns="http://www.w3.org/2000/svg"
 width="500.000000pt" height="500.000000pt" viewBox="0 0 500.000000 500.000000"
 preserveAspectRatio="xMidYMid meet">
<metadata>
Created by potrace 1.11, written by Peter Selinger 2001-2013
</metadata>
<g transform="translate(0.000000,500.000000) scale(0.100000,-0.100000)"
fill="#000000" stroke="none">
<path d="M3341 4386 c-9 -11 -9 -20 -2 -34 7 -13 7 -31 0 -58 -17 -60 -87
-190 -128 -233 l-36 -40 -150 -10 c-306 -21 -484 -25 -510 -11 -14 7 -26 11
-28 9 -2 -2 -22 -27 -45 -55 -23 -29 -42 -57 -42 -64 0 -13 6 -12 90 18 43 16
131 26 395 47 187 14 392 30 455 35 63 5 171 10 240 10 106 0 132 -3 178 -22
46 -19 55 -20 62 -8 14 22 15 21 -50 79 -59 51 -61 52 -85 37 -22 -15 -165
-36 -345 -51 l-75 -6 35 27 c19 16 71 63 115 105 44 42 90 82 103 88 12 6 22
18 22 25 0 13 -161 126 -179 126 -5 0 -14 -6 -20 -14z"/>
<path d="M2790 4283 c0 -5 12 -20 26 -34 15 -13 42 -56 60 -96 27 -58 39 -74
61 -79 22 -6 31 -2 54 26 39 47 45 78 18 106 -36 38 -219 102 -219 77z"/>
<path d="M3434 3887 c-5 -15 0 -26 15 -38 22 -18 22 -18 15 -294 -6 -218 -10
-280 -21 -291 -10 -10 -39 -14 -99 -14 -46 0 -84 -4 -84 -9 0 -6 26 -17 58
-26 51 -15 64 -24 101 -71 23 -30 45 -54 50 -54 4 0 31 15 61 33 90 54 90 54
90 400 0 197 4 305 11 319 16 30 1 38 -100 52 -88 12 -91 12 -97 -7z"/>
<path d="M2961 3863 c-19 -13 -53 -17 -160 -19 l-136 -3 -28 -38 c-33 -44 -23
-52 35 -28 27 10 86 18 165 22 l123 6 0 -204 c-1 -299 -8 -319 -107 -319 -59
0 -71 -15 -20 -25 20 -5 47 -24 72 -53 l41 -45 45 26 c24 15 58 40 74 57 l30
31 0 262 c1 144 5 270 9 280 7 14 -2 21 -48 42 -67 30 -65 29 -95 8z"/>
<path d="M3176 3764 c-4 -10 1 -25 11 -36 16 -18 18 -43 18 -224 0 -227 -5
-214 67 -178 55 28 62 54 69 229 4 88 8 169 10 179 5 22 -17 30 -109 41 -51 6
-60 4 -66 -11z"/>
<path d="M2647 3706 c-4 -11 -1 -19 10 -23 14 -5 15 -21 9 -124 -11 -195 -61
-345 -138 -415 -21 -18 -38 -36 -38 -39 0 -15 89 43 130 84 42 42 108 158 133
234 5 14 18 17 66 17 33 0 72 -5 87 -10 19 -8 30 -8 38 0 17 17 -52 73 -79 64
-11 -3 -37 -9 -59 -11 l-38 -5 7 53 c11 88 11 89 60 89 24 0 56 -5 71 -10 19
-8 30 -8 38 0 16 17 -52 72 -79 64 -11 -3 -33 -8 -49 -11 -26 -5 -27 -4 -17
15 12 23 3 27 -90 38 -47 5 -57 4 -62 -10z"/>
<path d="M1727 3397 c-3 -8 3 -23 14 -33 19 -17 19 -27 13 -198 -4 -100 -11
-189 -16 -198 -7 -15 -23 -18 -81 -19 l-72 -1 51 -23 c36 -16 62 -38 85 -69
18 -25 37 -46 44 -46 16 0 97 53 115 75 12 14 16 64 21 239 3 122 9 231 13
242 9 25 -2 29 -110 39 -59 6 -72 5 -77 -8z"/>
<path d="M1460 3296 c-6 -8 -9 -24 -6 -34 9 -27 -62 -130 -137 -198 -67 -60
-174 -134 -194 -134 -7 0 -13 -4 -13 -9 0 -16 98 17 205 68 94 45 203 121 233
163 7 10 26 25 43 33 47 25 46 26 -82 103 -32 19 -38 20 -49 8z"/>
<path d="M2070 3234 c0 -3 17 -25 38 -49 20 -23 48 -69 61 -101 34 -84 48
-104 74 -104 41 0 103 83 93 124 -7 28 -95 81 -186 112 -79 26 -80 27 -80 18z"/>
<path d="M3275 2912 c-3 -9 1 -19 10 -24 12 -7 15 -29 15 -103 l0 -95 -47 0
c-27 0 -57 -3 -69 -6 -17 -5 -22 0 -27 25 -4 17 -1 42 5 56 16 35 5 41 -74 49
-63 6 -68 5 -68 -12 0 -11 7 -25 16 -33 12 -10 15 -30 14 -93 -2 -45 -2 -84
-1 -88 2 -12 65 14 91 38 24 22 38 24 241 35 163 9 224 9 249 0 56 -19 60 -16
53 38 -3 27 -1 63 5 80 6 18 7 33 2 36 -5 3 -38 8 -73 12 -54 5 -65 3 -70 -11
-4 -10 -1 -19 8 -22 9 -4 15 -19 15 -40 0 -38 -3 -39 -105 -48 l-61 -5 4 67
c2 37 8 80 13 96 13 42 12 45 -23 50 -94 14 -117 14 -123 -2z"/>
<path d="M2681 2719 c17 -35 35 -71 39 -79 4 -8 16 -16 27 -18 25 -4 65 43 61
72 -4 24 -78 73 -125 82 l-33 6 31 -63z"/>
<path d="M2894 2610 c-14 -14 -266 -32 -295 -22 -18 7 -28 3 -52 -25 -35 -40
-30 -50 15 -34 18 7 96 17 173 23 123 9 145 8 179 -6 58 -24 70 -5 25 39 -25
25 -38 32 -45 25z"/>
<path d="M3654 2590 c-6 -6 -140 -20 -299 -32 -232 -17 -292 -18 -308 -8 -17
10 -23 9 -39 -11 -61 -76 -60 -90 1 -66 39 16 175 37 238 37 l33 0 -24 -49
c-30 -57 -47 -64 -144 -55 -51 5 -71 3 -77 -6 -5 -8 -2 -18 8 -25 14 -10 17
-36 19 -148 l3 -137 42 21 c23 11 45 28 49 37 5 9 11 59 14 111 5 92 6 95 31
102 l26 7 7 -78 c3 -42 3 -91 0 -108 -6 -28 -4 -32 15 -32 11 0 35 13 53 29
32 29 33 31 32 110 -1 71 1 81 17 81 9 0 24 3 33 6 14 5 16 -9 16 -120 0 -142
4 -148 63 -96 19 17 41 30 49 30 8 0 29 -16 48 -35 19 -19 39 -35 44 -35 6 0
29 16 51 34 l40 34 1 93 c0 52 4 101 8 110 5 12 -4 21 -43 37 -44 18 -54 19
-88 7 -21 -7 -92 -15 -158 -19 l-120 -6 53 31 53 31 -21 23 -21 22 77 7 c125
10 229 7 273 -9 38 -13 42 -13 48 2 4 11 -6 27 -33 50 -42 35 -54 39 -70 23z
m-74 -273 c0 -70 -12 -93 -52 -103 l-28 -6 0 86 0 86 40 0 40 0 0 -63z"/>
<path d="M2777 2516 c-3 -8 -2 -18 3 -21 10 -6 5 -61 -11 -126 -8 -32 -14 -38
-46 -44 -20 -3 -80 -5 -134 -4 -54 2 -101 0 -104 -3 -8 -8 53 -128 65 -128 5
0 13 7 18 15 4 9 50 27 101 40 102 28 297 101 306 116 8 12 8 12 -70 -6 -37
-9 -72 -14 -77 -13 -11 4 69 108 83 108 5 0 9 7 9 15 0 8 -21 23 -47 35 -69
31 -89 34 -96 16z"/>
<path d="M2582 2493 c2 -4 14 -30 26 -58 34 -75 37 -80 60 -83 14 -2 27 6 38
23 20 30 14 47 -27 77 -29 21 -103 52 -97 41z"/>
<path d="M2018 2393 c-20 -19 -143 -32 -208 -22 -75 13 -100 11 -100 -7 0 -9
7 -22 15 -28 11 -8 17 -42 21 -128 l7 -118 -56 0 -57 0 0 96 c0 52 4 104 10
114 8 16 2 23 -46 50 -54 30 -57 31 -76 13 -16 -15 -37 -18 -117 -18 -53 0
-111 3 -129 7 -26 6 -34 4 -39 -9 -4 -9 1 -21 11 -29 15 -10 19 -34 23 -133
l6 -121 -47 0 c-26 0 -56 5 -67 10 -16 9 -24 5 -51 -26 -60 -67 -61 -88 -5
-65 36 15 160 41 166 36 7 -8 -21 -166 -38 -218 -28 -80 -45 -109 -102 -171
-28 -31 -47 -56 -42 -56 22 0 150 100 175 136 45 65 79 149 95 239 l16 85 41
0 c22 0 51 3 64 6 22 6 22 6 22 -108 0 -76 -4 -120 -12 -131 -9 -11 -31 -17
-68 -19 l-55 -3 40 -14 c22 -8 55 -31 73 -52 19 -22 40 -39 48 -39 8 0 34 18
57 39 l42 40 3 150 3 151 55 0 54 0 -6 -57 c-19 -183 -62 -290 -148 -371 -65
-61 -52 -67 30 -14 121 78 184 190 214 375 l12 74 52 7 c105 12 96 24 96 -127
0 -164 -6 -177 -83 -178 l-52 -1 35 -15 c19 -8 54 -33 77 -55 l41 -41 36 23
c64 39 66 46 66 232 l0 168 47 0 c26 0 67 -8 91 -17 37 -14 45 -14 53 -2 6 10
-5 28 -41 64 l-50 49 -29 -17 c-16 -9 -39 -17 -51 -17 -21 0 -21 3 -17 93 2
50 6 100 8 110 3 12 -10 26 -47 47 -46 27 -52 28 -66 13z m-18 -173 l0 -110
-29 0 c-15 0 -48 -3 -72 -6 l-44 -6 3 107 c4 121 5 123 95 124 l47 1 0 -110z
m-488 68 c2 -7 2 -59 0 -115 l-4 -103 -61 0 -62 0 3 102 c2 57 8 108 14 115
14 17 105 17 110 1z"/>
<path d="M3186 1919 c-68 -23 -149 -72 -223 -135 -61 -52 -149 -204 -134 -232
5 -10 6 -31 4 -49 -4 -24 -13 -36 -38 -47 -18 -9 -37 -16 -42 -17 -4 0 -23
-18 -40 -41 -26 -31 -33 -50 -33 -83 0 -41 3 -45 63 -90 34 -26 73 -52 85 -58
l24 -11 -33 -27 c-29 -24 -32 -29 -19 -44 11 -13 24 -16 64 -11 l51 6 45 -54
44 -54 35 30 c30 27 39 29 75 24 113 -19 122 -18 174 4 133 57 252 274 252
460 0 79 -19 149 -58 210 -27 43 -28 47 -16 93 l12 48 -41 31 c-87 64 -162 78
-251 47z m-31 -190 c4 -6 -5 -38 -20 -71 -23 -52 -26 -65 -15 -81 7 -11 14
-45 17 -76 4 -46 2 -60 -15 -81 l-20 -24 -35 27 c-20 15 -38 27 -41 27 -9 0
-7 -90 4 -158 11 -63 7 -102 -10 -102 -16 0 -22 37 -26 169 -3 74 -9 143 -15
152 -11 22 -12 32 0 25 11 -7 24 143 15 168 -6 16 -4 17 13 7 19 -10 20 -17
15 -120 l-5 -109 31 -16 c43 -22 62 -20 64 7 3 45 -4 72 -21 87 -30 25 -32 49
-10 97 l21 46 -23 18 -24 19 47 0 c26 0 50 -5 53 -11z m147 -80 c3 -9 21 -9
73 0 55 10 71 10 81 -1 10 -10 14 -58 15 -183 1 -163 -7 -225 -30 -225 -5 0
-36 17 -68 39 l-58 38 -13 -31 -13 -31 -26 30 c-25 28 -25 32 -19 125 17 270
17 270 37 260 9 -5 19 -15 21 -21z"/>
<path d="M3348 1627 c-36 -10 -38 -12 -38 -53 0 -23 -3 -50 -7 -60 -6 -15 -1
-16 45 -10 53 7 72 -3 47 -24 -9 -8 -30 -11 -55 -7 l-40 5 0 -63 c0 -44 5 -68
15 -79 19 -19 92 -42 102 -32 4 4 7 80 8 169 0 182 3 177 -77 154z"/>
</g>
</svg>
